<svg width="98" height="23" viewBox="0 0 98 23" fill="none" xmlns="http://www.w3.org/2000/svg">
<path d="M30.7654 9.77785C29.6652 8.80608 28.5651 7.89849 27.3953 6.99089C26.6371 6.42233 25.7421 6.06431 24.8009 5.95312C24.4764 5.88894 24.1537 5.95312 23.8933 5.82477C23.6622 5.62431 23.4459 5.40738 23.2461 5.1757L23.0517 4.98135C22.7178 4.62207 22.3493 4.29658 21.9516 4.00958C21.044 3.42468 20.1364 3.42468 19.1628 3.8794C18.6188 4.13074 18.182 4.56752 17.9307 5.11153C17.8665 5.30588 17.8023 5.37005 17.608 5.23987C17.4136 5.1757 17.2834 5.11153 17.0891 5.04552C16.543 4.91376 15.9677 4.98274 15.4682 5.23987C15.2739 5.30588 15.2097 5.30588 15.1437 5.11153C15.0795 5.04552 15.0795 4.98135 15.0135 4.91717C14.0418 3.36051 12.0322 3.10198 10.6717 4.33228C10.217 4.72099 9.76414 5.1757 9.30942 5.62858C9.25272 5.69222 9.18283 5.74273 9.10461 5.77661C9.0264 5.81049 8.94175 5.82693 8.85654 5.82477C7.60215 5.87883 6.39802 6.33311 5.42051 7.12107C4.44508 7.89849 3.47331 8.6759 2.50154 9.52483C0.425985 11.3345 -0.287257 13.6686 0.101451 16.3254C0.377978 17.9897 1.21749 19.5086 2.4796 20.6281C3.74172 21.7477 5.34993 22.4 7.03531 22.476C8.7207 22.552 10.3811 22.0471 11.7389 21.0457C13.0966 20.0443 14.0694 18.6071 14.4946 16.9744C14.5588 16.7801 14.623 16.5619 14.689 16.3254C15.9725 16.9634 17.1753 16.9708 18.3872 16.3547C18.4092 16.4592 18.4349 16.5802 18.4477 16.6499L18.4587 16.7049C19.4617 21.4721 24.8156 23.9657 29.1409 21.7068C30.5363 20.9658 31.6596 19.7998 32.3479 18.3776C33.0362 16.9555 33.2539 15.3511 32.9693 13.7969C32.6374 12.2421 31.9975 10.8083 30.7654 9.77785ZM7.42822 20.3426C4.76778 20.3426 2.56754 18.1424 2.56754 15.3536C2.56754 12.5648 4.70544 10.2967 7.36222 10.2967C8.01399 10.2989 8.6589 10.43 9.25977 10.6825C9.86064 10.935 10.4056 11.304 10.8632 11.7681C11.3209 12.2322 11.6821 12.7823 11.9262 13.3866C12.1702 13.991 12.2923 14.6377 12.2852 15.2894C12.2852 18.0764 10.085 20.3426 7.42822 20.3426ZM16.374 14.9649C15.862 14.9523 15.3745 14.7434 15.0123 14.3812C14.6502 14.0191 14.4412 13.5315 14.4286 13.0195C14.4443 12.5055 14.6595 12.0178 15.0286 11.6597C15.3978 11.3016 15.8918 11.1014 16.4061 11.1014C16.9204 11.1014 17.4144 11.3016 17.7836 11.6597C18.1527 12.0178 18.3679 12.5055 18.3835 13.0195C18.3651 13.5407 18.1454 14.0344 17.7708 14.3971C17.3961 14.7598 16.8955 14.9633 16.374 14.9649ZM25.7085 20.4105C23.3744 20.4105 20.912 18.4651 20.846 15.4178C20.846 12.3008 23.3102 10.3609 25.7085 10.3609C28.4313 10.3609 30.571 12.6308 30.571 15.4178C30.571 18.1424 28.3671 20.4105 25.7085 20.4105Z" fill="#5865F2"/>
<path d="M26.4216 11.7874C26.4216 12.8252 26.1631 13.6686 25.4498 14.3158C25.0881 14.6239 24.6592 14.8431 24.1976 14.9558C23.7359 15.0685 23.2543 15.0716 22.7912 14.9649C22.7271 16.3914 23.829 18.0819 25.7084 18.2066C27.5896 18.4009 29.0802 17.0423 29.2086 15.2234C29.3369 13.5384 28.0425 11.9817 26.4216 11.7874Z" fill="#5865F2"/>
<path d="M8.0681 11.7874C8.0681 12.8252 7.8114 13.6686 7.09816 14.3158C6.7363 14.6238 6.30743 14.8429 5.84581 14.9556C5.3842 15.0683 4.90262 15.0715 4.43955 14.9649C4.37537 16.3914 5.47732 18.0819 7.35669 18.2066C9.23605 18.4009 10.7285 17.0423 10.8569 15.2234C10.9871 13.5384 9.69077 11.9817 8.0681 11.7874Z" fill="#5865F2"/>
<path d="M52.7125 8.74557C52.0619 8.01197 51.2691 7.41813 50.3821 7.00005C49.4764 6.5778 48.4881 6.36235 47.4888 6.36932C46.4518 6.35809 45.4283 6.60576 44.5112 7.08989C43.6169 7.5623 42.8592 8.25686 42.3109 9.10677V0.173828H38.8492V22.5429H42.0066L42.1569 20.2271C42.677 21.0895 43.42 21.7958 44.3077 22.2715C45.2294 22.7635 46.2608 23.0139 47.3055 22.9994C48.3267 23.0077 49.3374 22.7924 50.2666 22.3687C51.175 21.9478 51.9866 21.3435 52.6502 20.5938C53.3455 19.8101 53.8861 18.9017 54.2435 17.9169C54.6306 16.86 54.8243 15.742 54.8156 14.6165C54.8269 13.5094 54.6406 12.4092 54.2655 11.3675C53.9178 10.4035 53.3908 9.51385 52.7125 8.74557ZM50.6828 17.3466C50.3205 18.0951 49.7647 18.7332 49.073 19.1948C48.3814 19.6366 47.5779 19.8714 46.7572 19.8714C45.9366 19.8714 45.1331 19.6366 44.4415 19.1948C43.7508 18.7326 43.1958 18.0946 42.8335 17.3466C42.4311 16.5126 42.2301 15.5956 42.2468 14.6697C42.2288 13.7483 42.4299 12.8359 42.8335 12.0074C43.1987 11.2653 43.7534 10.6328 44.4415 10.1739C45.1331 9.73208 45.9366 9.49732 46.7572 9.49732C47.5779 9.49732 48.3814 9.73208 49.073 10.1739C49.7621 10.6322 50.3175 11.2648 50.6828 12.0074C51.0864 12.8359 51.2875 13.7483 51.2696 14.6697C51.2862 15.5956 51.0853 16.5126 50.6828 17.3466Z" fill="#5865F2"/>
<path d="M67.6284 15.6616C67.6284 16.9647 67.318 17.992 66.697 18.7438C66.0761 19.4955 65.2235 19.8714 64.1392 19.8714C63.0575 19.8714 62.2055 19.4955 61.5833 18.7438C60.9611 17.992 60.6507 16.9647 60.6519 15.6616V6.82037H57.192V15.6011C57.192 17.1046 57.478 18.4131 58.0501 19.5267C58.5856 20.5979 59.4215 21.4898 60.4557 22.0936C61.4874 22.695 62.7054 22.9957 64.1099 22.9957C65.5327 22.9957 66.7655 22.6902 67.8081 22.079C68.8462 21.4692 69.6856 20.572 70.2247 19.4955C70.8173 18.2845 71.1109 16.949 71.081 15.6011V6.82037H67.6284V15.6616Z" fill="#5865F2"/>
<path d="M80.3658 6.71402C79.4727 6.6923 78.595 6.94858 77.8539 7.44743C77.119 7.9681 76.5417 8.68114 76.1854 9.50832L76.035 6.92121H72.8777V22.6529H76.3357V14.6844C76.3357 13.2615 76.6768 12.1486 77.3588 11.3455C78.0409 10.5424 78.9827 10.1415 80.1843 10.1427C80.4258 10.1424 80.6671 10.1577 80.9067 10.1886C81.1427 10.2168 81.3746 10.2722 81.5979 10.3536L81.9903 6.98538C81.751 6.87971 81.4979 6.80871 81.2386 6.77453C80.9495 6.73368 80.6578 6.71346 80.3658 6.71402Z" fill="#5865F2"/>
<path d="M96.9814 9.81267C96.5509 8.82483 95.8332 7.98934 94.9215 7.41481C94.0099 6.84029 92.9465 6.5533 91.8695 6.59117C90.9294 6.57669 90.0001 6.79327 89.1633 7.2219C88.3867 7.62105 87.7242 8.21095 87.2381 8.93625V0.399345H83.78V22.7684H87.2381V13.6319C87.2233 12.9294 87.3894 12.2349 87.7203 11.615C88.0338 11.0416 88.4962 10.5634 89.0588 10.2307C89.6466 9.88659 90.3176 9.71029 90.9986 9.721C92.0193 9.721 92.8138 10.0816 93.3822 10.8028C93.9506 11.524 94.2379 12.5269 94.244 13.8116V22.7739H97.702V13.4229C97.7325 12.1809 97.4864 10.9477 96.9814 9.81267Z" fill="#5865F2"/>
</svg>
