<svg width="57" height="23" viewBox="0 0 57 23" fill="none" xmlns="http://www.w3.org/2000/svg">
<path d="M3.94979 0.402603V13.7568H0V0.402603H3.94979Z" fill="#58585A"/>
<path d="M42.9652 9.6762C42.9652 12.0039 40.9806 14.007 37.7178 14.007C35.2951 14.007 32.6421 13.0913 32.0895 10.4204L35.4666 9.37094C35.5431 10.0572 36.3059 10.7064 37.5463 10.7064C38.5771 10.7064 39.0347 10.2481 39.0347 9.7334C39.0347 8.932 38.0231 8.85551 36.6877 8.53094C34.1141 7.92042 32.6235 6.85166 32.6235 4.42888C32.6206 1.8717 34.7575 0.173828 37.6964 0.173828C40.0434 0.173828 42.1073 1.37557 42.5999 3.68467L39.2399 4.50537C39.0869 3.97063 38.6293 3.4745 37.7321 3.4745C36.9693 3.4745 36.3967 3.79906 36.3967 4.40958C36.3967 5.17309 37.5606 5.28747 38.5907 5.57343C41.8556 6.47062 42.9652 7.55797 42.9652 9.6762Z" fill="#58585A"/>
<path d="M51.6547 11.6222H47.5713L46.98 13.7568H42.7057L47.1702 0.402603H52.0551L56.5203 13.7568H52.246L51.6547 11.6222ZM50.8719 8.79832L49.6137 4.23801L48.3541 8.79832H50.8719Z" fill="#58585A"/>
<path d="M10.4582 0.390465L13.7768 13.7912L10.1644 13.7526L8.54446 7.07473V13.7526L4.9707 13.7912V0.390465H10.4582Z" fill="#58585A"/>
<path d="M13.7768 0.390465L12.6279 5.75074L14.4152 12.6423L15.7413 7.07473V13.7526L19.265 13.7912V0.390465H13.7768Z" fill="#58585A"/>
<path d="M28.794 13.7972H28.7932V13.7947L28.794 13.7972Z" fill="black"/>
<path d="M28.794 7.08188L28.7932 7.08436V7.08188H28.794Z" fill="#58585A"/>
<path d="M28.6994 13.6761L28.7931 13.7947H32.7457L31.9165 12.731L30.1607 10.4826L31.9172 7.44147L32.1252 7.08403H28.7938L28.2483 8.0284L27.6128 7.21414C28.2166 6.77903 28.6778 6.17476 28.9384 5.47764C29.1989 4.78053 29.2471 4.02184 29.0767 3.29739C28.9063 2.57294 28.5251 1.91522 27.9812 1.4073C27.4372 0.899382 26.755 0.564044 26.0206 0.443638C25.2861 0.323231 24.5325 0.423157 23.8549 0.730794C23.1772 1.03843 22.6059 1.53998 22.2131 2.1721C21.8204 2.80423 21.6237 3.53857 21.648 4.28239C21.6723 5.0262 21.9165 5.74614 22.3497 6.35126C21.8324 6.62186 21.378 6.99867 21.0163 7.45703C20.6546 7.9154 20.3938 8.44498 20.251 9.01111C20.1082 9.57724 20.0865 10.1671 20.1874 10.7422C20.2884 11.3173 20.5096 11.8646 20.8367 12.3482C21.1638 12.8319 21.5893 13.241 22.0854 13.5488C22.5816 13.8567 23.1371 14.0562 23.7157 14.1345C24.2943 14.2127 24.8829 14.1679 25.443 14.0029C26.0031 13.8379 26.522 13.5565 26.9658 13.1771L25.1192 10.8093C25.0386 10.8977 24.9408 10.9686 24.8317 11.0178C24.7227 11.067 24.6047 11.0934 24.4851 11.0953C23.954 11.0953 23.5229 10.5834 23.5229 9.95147C23.5193 9.6529 23.6225 9.36287 23.8138 9.13363C23.8954 9.03396 23.9977 8.95325 24.1137 8.89708C24.2296 8.84091 24.3563 8.81063 24.4851 8.80835C24.609 8.80891 24.7311 8.83725 24.8426 8.89128L24.8633 8.90057C24.8869 8.91273 24.9098 8.92631 24.9348 8.94061L24.9534 8.95276C24.9677 8.96205 24.9813 8.97206 24.9948 8.98207C25.0672 9.03904 25.1333 9.1035 25.1922 9.17438L27.6871 12.3728L28.6994 13.6761ZM25.8077 4.89216C25.6881 4.96143 25.5526 4.99839 25.4145 4.99939C24.8976 4.99939 24.4773 4.48824 24.4773 3.85556C24.4772 3.67313 24.5137 3.49253 24.5845 3.3244C24.7418 2.96052 25.0542 2.71173 25.4145 2.71173C25.9314 2.71173 26.351 3.2236 26.351 3.85556C26.3474 4.32024 26.1244 4.71415 25.8077 4.89216Z" fill="#FAC802"/>
<path d="M56.5203 16.3383H0V17.3371H56.5203V16.3383Z" fill="#FAC802"/>
<path d="M0.0478516 22.1582V20.2838H0.357401V22.1582H0.0478516Z" fill="#58585A"/>
<path d="M2.41141 22.1582H2.03537L1.11388 20.6641H1.10315L1.10959 20.7477C1.12174 20.9064 1.12746 21.0523 1.12746 21.1838V22.1582H0.849365V20.2838H1.22111L2.14475 21.77H2.1519C2.1519 21.75 2.1469 21.6785 2.14189 21.5556C2.13689 21.4326 2.13403 21.3361 2.13403 21.2696V20.2838H2.41498L2.41141 22.1582Z" fill="#58585A"/>
<path d="M3.5538 22.1582H3.24782V20.5483H2.69592V20.2838H4.10569V20.5483H3.5538V22.1582Z" fill="#58585A"/>
<path d="M5.45325 22.1582H4.39307V20.2838H5.45325V20.5426H4.69904V21.053H5.40607V21.3096H4.69904V21.898H5.45325V22.1582Z" fill="#58585A"/>
<path d="M5.86218 22.1582V20.2838H6.16887V21.8958H6.96241V22.1582H5.86218Z" fill="#58585A"/>
<path d="M7.28186 22.1582V20.2838H7.58855V22.1582H7.28186Z" fill="#58585A"/>
<path d="M8.85039 21.1417H9.54098V22.0832C9.43483 22.1179 9.32605 22.1439 9.2157 22.1611C9.10415 22.1767 8.99163 22.1844 8.87899 22.184C8.59303 22.184 8.37403 22.1001 8.222 21.9324C8.06997 21.7646 7.993 21.5275 7.99109 21.221C7.99109 20.9193 8.07807 20.6832 8.25203 20.5126C8.42503 20.3417 8.66452 20.2566 8.96692 20.2566C9.15832 20.2558 9.34786 20.2943 9.52382 20.3696L9.41587 20.6248C9.2733 20.557 9.11764 20.5211 8.95977 20.5197C8.87181 20.5154 8.78394 20.5299 8.70206 20.5623C8.62019 20.5948 8.5462 20.6443 8.48508 20.7077C8.36256 20.8509 8.30007 21.0358 8.31065 21.2239C8.31065 21.4527 8.36307 21.6269 8.46792 21.7465C8.52549 21.8076 8.59582 21.8553 8.67391 21.8862C8.75199 21.9171 8.83592 21.9304 8.91974 21.9252C9.02682 21.9244 9.13349 21.912 9.23786 21.888V21.4062H8.85039V21.1417Z" fill="#58585A"/>
<path d="M11.0515 22.1583H9.9906V20.2839H11.0515V20.5427H10.2944V21.0531H11.0007V21.3098H10.2944V21.8981H11.0486L11.0515 22.1583ZM10.8092 20.1338C10.7021 20.0697 10.6038 19.9921 10.5168 19.9028C10.4301 19.99 10.3343 20.0674 10.2308 20.1338H10.0285V20.1016C10.1498 19.9833 10.2588 19.853 10.3538 19.7127H10.6876C10.7809 19.8551 10.8911 19.9856 11.0158 20.1016V20.1338H10.8092Z" fill="#58585A"/>
<path d="M13.019 22.1582H12.643L11.7244 20.6641H11.7144L11.7208 20.7477C11.7322 20.9064 11.7387 21.0523 11.7387 21.1838V22.1582H11.4606V20.2838H11.8323L12.7517 21.77H12.7595C12.7595 21.75 12.7545 21.6785 12.7488 21.5556C12.7431 21.4326 12.7417 21.3361 12.7417 21.2696V20.2838H13.0226L13.019 22.1582Z" fill="#58585A"/>
<path d="M14.3115 20.5197C14.2324 20.5158 14.1535 20.5308 14.0813 20.5633C14.0091 20.5959 13.9456 20.6451 13.8962 20.707C13.787 20.8564 13.7334 21.0392 13.7446 21.2239C13.7446 21.4534 13.7932 21.6278 13.8876 21.7457C13.9396 21.8056 14.0047 21.8527 14.0778 21.8834C14.151 21.914 14.2302 21.9273 14.3094 21.9223C14.387 21.9225 14.4644 21.9146 14.5403 21.8987C14.6118 21.883 14.6918 21.863 14.7719 21.838V22.101C14.6115 22.1586 14.4419 22.1867 14.2715 22.184C13.997 22.184 13.7861 22.1008 13.6388 21.9345C13.4915 21.7681 13.4181 21.5298 13.4186 21.2196C13.4147 21.043 13.4514 20.8679 13.5259 20.7077C13.5923 20.5667 13.7003 20.4495 13.8354 20.3717C13.9807 20.2914 14.1448 20.2512 14.3108 20.2552C14.4949 20.2533 14.6768 20.2947 14.842 20.376L14.7319 20.6312C14.6667 20.6005 14.5996 20.574 14.531 20.5519C14.4599 20.5301 14.3859 20.5193 14.3115 20.5197Z" fill="#58585A"/>
<path d="M15.1786 22.1582V20.2838H15.4846V22.1582H15.1786Z" fill="#58585A"/>
<path d="M17.1431 22.1582L16.9558 21.6378H16.2409L16.0579 22.1582H15.734L16.436 20.2759H16.7692L17.4705 22.1582H17.1431ZM16.875 21.3718L16.6991 20.8614C16.6862 20.8278 16.6684 20.7735 16.6462 20.6998C16.6241 20.6262 16.6076 20.5726 16.599 20.5383C16.5728 20.6555 16.5389 20.7708 16.4975 20.8836L16.3288 21.3718H16.875Z" fill="#58585A"/>
<path d="M17.9976 21.8831C17.9377 22.0931 17.8622 22.2984 17.7717 22.4972H17.55C17.6051 22.2851 17.649 22.0704 17.6816 21.8538H17.9783L17.9976 21.8831Z" fill="#58585A"/>
<path d="M19.8977 20.5197C19.8186 20.5162 19.7398 20.5313 19.6677 20.5638C19.5955 20.5964 19.532 20.6454 19.4824 20.707C19.3736 20.8566 19.32 21.0392 19.3308 21.2239C19.3308 21.4534 19.3794 21.6278 19.4738 21.7458C19.5256 21.8056 19.5906 21.8527 19.6636 21.8834C19.7367 21.914 19.8158 21.9273 19.8948 21.9223C19.9724 21.9225 20.0498 21.9146 20.1258 21.8987C20.1972 21.883 20.2773 21.863 20.3581 21.838V22.1011C20.1976 22.1585 20.0281 22.1866 19.8577 22.184C19.5832 22.184 19.3725 22.1008 19.2257 21.9345C19.0789 21.7682 19.0053 21.5299 19.0048 21.2196C19.0009 21.043 19.0376 20.8679 19.112 20.7077C19.1787 20.5669 19.2867 20.4497 19.4216 20.3717C19.5671 20.2913 19.7315 20.2511 19.8977 20.2552C20.0815 20.2533 20.2633 20.2947 20.4282 20.376L20.3181 20.6312C20.2529 20.6004 20.1858 20.5739 20.1172 20.5519C20.0461 20.5301 19.9721 20.5193 19.8977 20.5197Z" fill="#58585A"/>
<path d="M22.4291 21.2182C22.4291 21.5232 22.3528 21.7615 22.2003 21.9331C22.0478 22.1046 21.8317 22.1892 21.5519 22.1869C21.2688 22.1869 21.0515 22.103 20.8999 21.9352C20.7484 21.7675 20.6726 21.5292 20.6726 21.2203C20.6726 20.911 20.7489 20.6727 20.9014 20.5054C21.0539 20.3381 21.2717 20.2552 21.5548 20.2566C21.8336 20.2566 22.0481 20.341 22.1982 20.5097C22.3483 20.6784 22.4253 20.9146 22.4291 21.2182ZM20.9993 21.2182C20.9993 21.4493 21.047 21.6245 21.1423 21.7436C21.1957 21.7994 21.2598 21.8438 21.3308 21.8742C21.4019 21.9045 21.4783 21.9201 21.5555 21.9201C21.6327 21.9201 21.7091 21.9045 21.7802 21.8742C21.8512 21.8438 21.9153 21.7994 21.9687 21.7436C22.064 21.6259 22.1105 21.45 22.1081 21.216C22.1081 20.9866 22.0616 20.8121 21.9701 20.6927C21.9208 20.6324 21.8577 20.5848 21.7862 20.5538C21.7147 20.5228 21.6368 20.5094 21.5591 20.5147C21.4806 20.5096 21.4021 20.5231 21.3298 20.554C21.2575 20.5849 21.1935 20.6325 21.143 20.6927C21.0467 20.8138 20.9984 20.9889 20.9979 21.2182H20.9993Z" fill="#58585A"/>
<path d="M23.6422 22.1582L23.0989 20.5926H23.091C23.1063 20.8252 23.1137 21.0432 23.1132 21.2467V22.1582H22.8351V20.2838H23.264L23.7852 21.775H23.7923L24.3285 20.2838H24.7617V22.1582H24.4672V21.2289C24.4672 21.1359 24.4672 21.0144 24.4743 20.865C24.4815 20.7156 24.4829 20.6248 24.4865 20.5933H24.4758L23.9131 22.1561L23.6422 22.1582Z" fill="#58585A"/>
<path d="M26.4976 20.8507C26.5026 20.9354 26.4878 21.0201 26.4545 21.0982C26.4211 21.1762 26.37 21.2454 26.3053 21.3003C26.1766 21.4047 25.9941 21.4569 25.7577 21.4569H25.5625V22.1582H25.2559V20.2838H25.7956C26.0301 20.2838 26.2057 20.3314 26.3225 20.4267C26.3825 20.4791 26.4295 20.5446 26.4599 20.6181C26.4903 20.6917 26.5032 20.7713 26.4976 20.8507ZM25.5625 21.1988H25.7255C25.8465 21.2081 25.9674 21.1797 26.0716 21.1173C26.1094 21.0867 26.1392 21.0474 26.1584 21.0027C26.1776 20.9579 26.1856 20.9092 26.1816 20.8607C26.1851 20.8156 26.178 20.7704 26.1608 20.7285C26.1437 20.6867 26.1171 20.6495 26.083 20.6198C25.9924 20.5595 25.8841 20.5313 25.7756 20.5397H25.5611L25.5625 21.1988Z" fill="#58585A"/>
<path d="M27.9325 22.1582H26.8716V20.2838H27.9325V20.5426H27.1783V21.053H27.8853V21.3096H27.1783V21.898H27.9325V22.1582Z" fill="#58585A"/>
<path d="M28.9854 22.1582H28.6787V20.5483H28.1276V20.2838H29.5366V20.5483H28.9854V22.1582Z" fill="#58585A"/>
<path d="M30.8833 22.1583H29.8239V20.2839H30.8833V20.5427H30.1305V21.0531H30.8369V21.3098H30.1305V21.8981H30.8833V22.1583ZM30.641 20.1338C30.5339 20.0697 30.4357 19.9921 30.3486 19.9028C30.262 19.99 30.1661 20.0674 30.0626 20.1338H29.8603V20.1016C29.9816 19.9833 30.0906 19.853 30.1856 19.7127H30.5194C30.6128 19.8551 30.7229 19.9856 30.8476 20.1016V20.1338H30.641Z" fill="#58585A"/>
<path d="M32.8522 22.1582H32.4762L31.554 20.6641H31.5439L31.5504 20.7477C31.5618 20.9064 31.5683 21.0523 31.5683 21.1838V22.1582H31.2902V20.2838H31.6619L32.5813 21.77H32.5891C32.5891 21.75 32.5841 21.6785 32.5784 21.5556C32.5727 21.4326 32.5713 21.3361 32.5713 21.2696V20.2838H32.8522V22.1582Z" fill="#58585A"/>
<path d="M34.1449 20.5197C34.0658 20.5158 33.9869 20.5308 33.9147 20.5633C33.8425 20.5959 33.779 20.6451 33.7295 20.707C33.6204 20.8564 33.5668 21.0392 33.578 21.2239C33.578 21.4534 33.6266 21.6278 33.721 21.7457C33.7729 21.8056 33.838 21.8527 33.9112 21.8834C33.9844 21.914 34.0636 21.9273 34.1428 21.9223C34.2203 21.9225 34.2977 21.9146 34.3737 21.8987C34.4452 21.883 34.5252 21.863 34.6053 21.838V22.101C34.4448 22.1586 34.2753 22.1867 34.1049 22.184C33.8303 22.184 33.6194 22.1008 33.4722 21.9345C33.3249 21.7681 33.2515 21.5298 33.252 21.2196C33.2481 21.043 33.2848 20.8679 33.3592 20.7077C33.4257 20.5667 33.5337 20.4495 33.6688 20.3717C33.8141 20.2914 33.9782 20.2512 34.1442 20.2552C34.3283 20.2533 34.5102 20.2947 34.6753 20.376L34.5653 20.6312C34.5001 20.6005 34.433 20.574 34.3644 20.5519C34.2933 20.5301 34.2193 20.5193 34.1449 20.5197Z" fill="#58585A"/>
<path d="M35.012 22.1582V20.2838H35.3158V22.1582H35.012Z" fill="#58585A"/>
<path d="M36.9765 22.1582L36.7892 21.6378H36.0743L35.8877 22.1582H35.5638L36.2659 20.2759H36.6026L37.3039 22.1582H36.9765ZM36.7084 21.3718L36.5311 20.8628C36.5182 20.8292 36.5004 20.7749 36.4782 20.7013C36.456 20.6276 36.4396 20.574 36.431 20.5397C36.4048 20.6569 36.3709 20.7723 36.3295 20.885L36.1608 21.3733L36.7084 21.3718Z" fill="#58585A"/>
<path d="M39.2927 22.1582H38.2318V20.2838H39.2927V20.5426H38.5385V21.053H39.2477V21.3096H38.5414V21.898H39.2956L39.2927 22.1582Z" fill="#58585A"/>
<path d="M41.4402 22.1582H40.38V20.2838H41.4402V20.5426H40.6867V21.053H41.3923V21.3096H40.686V21.898H41.4395L41.4402 22.1582Z" fill="#58585A"/>
<path d="M43.2268 22.1582H42.8743L42.4053 21.3918L41.9321 22.1582H41.6068L42.2288 21.1867L41.6468 20.2838H41.9879L42.4211 20.9929L42.855 20.2838H43.1796L42.5934 21.1917L43.2268 22.1582Z" fill="#58585A"/>
<path d="M44.7209 20.8507C44.7261 20.9354 44.7114 21.0202 44.678 21.0983C44.6446 21.1763 44.5934 21.2455 44.5286 21.3003C44.4006 21.4047 44.2176 21.4569 43.981 21.4569H43.7858V22.1582H43.4799V20.2838H44.0196C44.2541 20.2838 44.4295 20.3314 44.5458 20.4267C44.6058 20.479 44.6529 20.5445 44.6833 20.6181C44.7137 20.6916 44.7266 20.7713 44.7209 20.8507ZM43.7858 21.1988H43.9488C44.07 21.2081 44.1912 21.1796 44.2956 21.1173C44.3334 21.0867 44.3632 21.0474 44.3824 21.0027C44.4016 20.9579 44.4096 20.9092 44.4056 20.8607C44.4091 20.8156 44.402 20.7704 44.3848 20.7285C44.3677 20.6867 44.3411 20.6495 44.307 20.6198C44.2161 20.5594 44.1076 20.5313 43.9989 20.5397H43.7844L43.7858 21.1988Z" fill="#58585A"/>
<path d="M46.1565 22.1582H45.0956V20.2838H46.1565V20.5426H45.4023V21.053H46.1107V21.3096H45.4044V21.898H46.1586L46.1565 22.1582Z" fill="#58585A"/>
<path d="M46.8679 21.4097V22.1582H46.5619V20.2838H47.0909C47.3333 20.2838 47.512 20.3288 47.6285 20.4196C47.6881 20.4692 47.735 20.5323 47.7654 20.6037C47.7957 20.675 47.8086 20.7526 47.8029 20.8299C47.8029 21.063 47.6817 21.2298 47.4391 21.3304L47.9681 22.1596H47.6199L47.171 21.4111L46.8679 21.4097ZM46.8679 21.1559H47.0823C47.1918 21.1652 47.3012 21.137 47.3926 21.0759C47.4258 21.0467 47.4518 21.0102 47.4686 20.9693C47.4853 20.9283 47.4924 20.8841 47.4891 20.8399C47.493 20.7961 47.4855 20.7521 47.4672 20.7121C47.4489 20.6721 47.4204 20.6376 47.3847 20.6119C47.2897 20.5583 47.1812 20.5335 47.0723 20.5404H46.8693L46.8679 21.1559Z" fill="#58585A"/>
<path d="M48.2404 22.1582V20.2838H48.547V22.1582H48.2404Z" fill="#58585A"/>
<path d="M50.1027 22.1583H49.0417V20.2839H50.1027V20.5427H49.3484V21.0531H50.0548V21.3098H49.3484V21.8981H50.1027V22.1583ZM49.8603 20.1338C49.7531 20.0699 49.6548 19.9923 49.5679 19.9028C49.4813 19.99 49.3854 20.0674 49.282 20.1338H49.0796V20.1016C49.2009 19.9833 49.3099 19.853 49.4049 19.7127H49.7388C49.8321 19.8551 49.9423 19.9856 50.0669 20.1016V20.1338H49.8603Z" fill="#58585A"/>
<path d="M52.0692 22.1582H51.6939L50.7717 20.6641H50.7617L50.7681 20.7477C50.7796 20.9064 50.786 21.0523 50.786 21.1838V22.1582H50.5072V20.2838H50.8797L51.799 21.77H51.8069C51.8069 21.75 51.8019 21.6785 51.7962 21.5556C51.7904 21.4326 51.789 21.3361 51.789 21.2696V20.2838H52.0692V22.1582Z" fill="#58585A"/>
<path d="M53.3625 20.5197C53.2834 20.5158 53.2045 20.5308 53.1323 20.5633C53.0601 20.5959 52.9967 20.6451 52.9472 20.707C52.8381 20.8564 52.7845 21.0392 52.7956 21.2239C52.7956 21.4534 52.8443 21.6278 52.9386 21.7457C52.9906 21.8056 53.0557 21.8527 53.1289 21.8834C53.202 21.914 53.2812 21.9273 53.3604 21.9223C53.438 21.9225 53.5154 21.9146 53.5913 21.8987C53.6628 21.883 53.7429 21.863 53.8229 21.838V22.101C53.6625 22.1586 53.493 22.1867 53.3225 22.184C53.048 22.184 52.8371 22.1008 52.6898 21.9345C52.5426 21.7681 52.4692 21.5298 52.4696 21.2196C52.4657 21.043 52.5024 20.8679 52.5769 20.7077C52.6433 20.5667 52.7513 20.4495 52.8864 20.3717C53.0318 20.2914 53.1958 20.2512 53.3618 20.2552C53.5459 20.2533 53.7278 20.2947 53.893 20.376L53.7829 20.6312C53.7177 20.6005 53.6506 20.574 53.582 20.5519C53.5109 20.5301 53.4369 20.5193 53.3625 20.5197Z" fill="#58585A"/>
<path d="M54.2289 22.1582V20.2838H54.5356V22.1582H54.2289Z" fill="#58585A"/>
<path d="M56.1943 22.1582L56.007 21.6378H55.2921L55.1084 22.1582H54.7853L55.4873 20.2759H55.8204L56.5218 22.1582H56.1943ZM55.9262 21.3718L55.7504 20.8614C55.7375 20.8278 55.7196 20.7735 55.6975 20.6998C55.6753 20.6262 55.6589 20.5726 55.6503 20.5383C55.6241 20.6555 55.5902 20.7708 55.5488 20.8836L55.3801 21.3718H55.9262Z" fill="#58585A"/>
</svg>
